# xmcd
#
# Track frame offsets: 
#        150
#        12969
#        26821
#        38094
#        49712
#        60936
#        72302
#        84337
#        98149
#        109536
#        120428
#        131529
#        144452
#        154524
#        165898
#        179460
#        193583
#        205743
#        216401
#        229760
#
# Disc length: 3242 seconds
#
# Revision: 3
# Processed by: cddbd v1.5.2PL0 Copyright (c) Steve Scherf et al.
# Submitted via: ExactAudioCopy v0.99pb4
#
DISCID=020ca814
DTITLE=Lefty Frizzell - Give Me More, More, More [CD2 - Forever And
DTITLE=Always)
DYEAR=2007
DGENRE=Country
TTITLE0=It's Just You (I Could Love Always)
TTITLE1=(Darling Now) You're Here So Everything's Allright
TTITLE2=If You Can Spare The Time (I Won't Miss The Money)
TTITLE3=A King Without A Queen
TTITLE4=Forever (And Always)
TTITLE5=I Know You're Lonesome (While Waiting For Me)
TTITLE6=Lost Love Blues
TTITLE7=That's Me Without You
TTITLE8=Send Her To Be Mine
TTITLE9=Lost Love Blues
TTITLE10=I'm An Old Old Man (Tryin' To Live While I Can)
TTITLE11=You're Just Mine ( Only In My Dreams)
TTITLE12=(Honey Baby Hurry) Bring Your Sweet Self Back To Me
TTITLE13=Time Changes Things
TTITLE14=California Blues (Blue Yodel No 4)
TTITLE15=Never No Mo' Blues
TTITLE16=We Crucified Our Jesus
TTITLE17=When It Comes To Measuring Love
TTITLE18=Sleep Baby Sleep
TTITLE19=I'm Lonely And Blue
EXTD=YEAR: 2007
EXTT0=
EXTT1=
EXTT2=
EXTT3=
EXTT4=
EXTT5=
EXTT6=
EXTT7=
EXTT8=
EXTT9=
EXTT10=
EXTT11=
EXTT12=
EXTT13=
EXTT14=
EXTT15=
EXTT16=
EXTT17=
EXTT18=
EXTT19=
PLAYORDER=
